<svg xmlns="http://www.w3.org/2000/svg" version="1.1" xmlns:xlink="http://www.w3.org/1999/xlink" xmlns:svgjs="http://svgjs.dev/svgjs" width="1000" height="1000" viewBox="0 0 1000 1000"><rect width="1000" height="1000" fill="#ffffff"></rect><g transform="matrix(0.7,0,0,0.7,149.5761633700268,330.41270828467486)"><svg viewBox="0 0 396 192" data-background-color="#ffffff" preserveAspectRatio="xMidYMid meet" height="484" width="1000" xmlns="http://www.w3.org/2000/svg" xmlns:xlink="http://www.w3.org/1999/xlink"><g id="tight-bounds" transform="matrix(1,0,0,1,0.23977043638484474,0.10613934280527815)"><svg viewBox="0 0 395.52 191.78745593976163" height="191.78745593976163" width="395.52"><g><svg viewBox="0 0 395.52 191.78745593976163" height="191.78745593976163" width="395.52"><g><svg viewBox="0 0 395.52 191.78745593976163" height="191.78745593976163" width="395.52"><g transform="matrix(1,0,0,1,0,140.2720638103227)"><svg viewBox="0 0 395.52 51.51539212943895" height="51.51539212943895" width="395.52"><g id="textblocktransform"><svg viewBox="0 0 395.52 51.51539212943895" height="51.51539212943895" width="395.52" id="textblock"><g><svg viewBox="0 0 395.52 51.51539212943895" height="51.51539212943895" width="395.52"><g transform="matrix(1,0,0,1,0,0)"><svg width="395.52" viewBox="0.571580708026886 -34.11085510253906 349.6700744628906 45.5435676574707" height="51.51539212943895" data-palette-color="#e6b17e"><path d="M21.946 11.224v0c-5.928 0.677-10.783-0.291-14.564-2.906-3.789-2.62-5.998-6.682-6.626-12.186v0c-0.384-3.358-0.168-6.369 0.648-9.032 0.81-2.656 2.136-4.857 3.976-6.604v0c3.638-3.455 8.719-5.556 15.243-6.302v0c4.213-0.481 8.491-0.387 12.836 0.285v0c1.677 0.345 2.634 1.554 2.87 3.627v0c0.324 2.835-0.402 4.354-2.177 4.557v0c-0.298 0.034-1.287 0.013-2.966-0.064-1.673-0.077-2.841-0.078-3.503-0.002v0c-2.338 0.267-4.047 1.288-5.126 3.062-1.086 1.775-1.499 3.791-1.241 6.05 0.258 2.259 1.078 4.175 2.459 5.748 1.382 1.58 3.1 2.286 5.154 2.118v0c1.385-0.091 3.84-0.338 7.363-0.741v0c1.716-0.196 2.748 0.501 3.098 2.092v0c0.167 0.585 0.286 1.182 0.356 1.791 0.07 0.609 0.09 1.231 0.062 1.865v0c-0.063 1.208-0.888 2.178-2.476 2.91-1.581 0.731-3.899 1.462-6.956 2.194-3.05 0.731-5.86 1.243-8.43 1.538zM61.391-23.319v0l0.276 4.513 0.799 9.567c0.116 1.389 0.637 2.425 1.564 3.11 0.92 0.686 1.958 0.981 3.114 0.884 1.156-0.096 2.124-0.559 2.905-1.386 0.774-0.827 1.103-1.935 0.987-3.324v0l-1.233-14.768c-0.129-1.548-0.015-2.705 0.343-3.471 0.351-0.759 1.221-1.196 2.61-1.311v0l4.554-0.381c1.056-0.088 1.81 0.163 2.26 0.755v0c0.851 1.06 1.592 5.373 2.225 12.94v0c0.207 2.478 0.332 4.381 0.376 5.708v0c0.123 2.679-0.295 5.116-1.257 7.31-0.967 2.195-2.289 3.994-3.964 5.399v0c-3.389 2.838-7.362 4.448-11.92 4.828v0c-6.012 0.502-11.102-0.485-15.269-2.96v0c-2.098-1.256-3.817-3.016-5.157-5.279-1.333-2.27-2.148-4.972-2.443-8.105v0c-0.163-1.552-0.371-3.839-0.623-6.862-0.252-3.023-0.394-5.205-0.426-6.548-0.025-1.343 0.155-2.388 0.541-3.135 0.386-0.748 1.256-1.179 2.612-1.292v0l13.224-1.104c1.322-0.11 2.228 0.162 2.717 0.817v0c0.632 0.844 1.027 2.209 1.185 4.095zM108.266-3.169v0l0.214 4.165c0.073 1.425-0.856 2.237-2.789 2.436-1.932 0.199-4.034 0.358-6.304 0.475-2.264 0.116-4.858 0.166-7.782 0.149v0c-0.962-0.017-1.748-0.307-2.358-0.87-0.61-0.569-0.985-1.231-1.123-1.985v0c-0.416-2.902-0.785-7.473-1.106-13.711-0.321-6.238-0.455-10.788-0.401-13.647 0.054-2.853 1.421-4.365 4.102-4.537v0c3.073-0.225 6.363-0.427 9.872-0.608 3.509-0.18 7.31-0.326 11.403-0.436 4.093-0.11 7.508 1.256 10.244 4.1 2.737 2.85 4.197 6.063 4.38 9.637 0.183 3.569-0.807 6.573-2.971 9.015-2.165 2.434-5.451 3.765-9.858 3.991v0l-3.865 0.199c-0.433 0.022-0.825 0.189-1.175 0.501-0.344 0.318-0.505 0.694-0.483 1.126zM107.292-21.142v0l0.572 9.182c0.032 0.626 0.394 0.921 1.087 0.886v0c2.051-0.105 3.636-0.758 4.755-1.957 1.113-1.205 1.629-2.587 1.55-4.145-0.08-1.551-0.701-2.861-1.865-3.929-1.17-1.068-2.83-1.547-4.98-1.437v0c-0.792 0.041-1.165 0.507-1.119 1.4zM166.608 0.532v0c-3.264 1.47-6.877 2.236-10.836 2.296-3.96 0.061-7.57-0.404-10.832-1.394-3.262-0.997-5.92-2.356-7.974-4.078-2.047-1.729-3.617-3.668-4.71-5.818-1.093-2.157-1.658-4.412-1.694-6.765-0.036-2.353 0.469-4.624 1.516-6.814 1.04-2.183 2.55-4.17 4.529-5.96 1.98-1.784 4.584-3.231 7.814-4.341 3.23-1.116 6.785-1.704 10.665-1.763 3.88-0.06 7.317 0.371 10.311 1.292 2.994 0.914 5.417 2.184 7.269 3.809v0c3.765 3.329 5.683 7.314 5.754 11.953v0c0.059 3.873-1.145 7.518-3.613 10.936v0l4.727 0.378c0.768 0.088 1.159 0.579 1.172 1.472 0.014 0.893-0.163 1.956-0.531 3.189-0.361 1.232-0.71 2.151-1.048 2.756-0.338 0.599-0.97 0.905-1.896 0.919v0c-1.127 0.017-4.668-0.672-10.623-2.067zM165.395-16.631c-0.024-1.573-0.609-2.941-1.753-4.104-1.145-1.156-2.867-1.716-5.167-1.681-2.306 0.035-4.13 0.677-5.471 1.924-1.341 1.247-1.998 2.748-1.971 4.501 0.027 1.76 0.762 3.159 2.205 4.197 1.443 1.038 3.167 1.542 5.173 1.51 2-0.031 3.67-0.703 5.01-2.017 1.34-1.314 1.998-2.758 1.974-4.331zM205.037-27.631v0l-0.19 4.517-0.193 9.598c-0.028 1.393 0.384 2.478 1.235 3.256 0.845 0.777 1.847 1.177 3.006 1.2 1.16 0.023 2.171-0.336 3.033-1.079 0.855-0.743 1.297-1.811 1.324-3.204v0l0.298-14.817c0.031-1.553 0.264-2.692 0.698-3.417 0.428-0.718 1.338-1.063 2.732-1.035v0l4.569 0.092c1.06 0.021 1.783 0.349 2.171 0.983v0c0.737 1.142 1.03 5.508 0.877 13.101v0c-0.05 2.486-0.122 4.392-0.215 5.716v0c-0.154 2.677-0.822 5.058-2.004 7.142-1.189 2.083-2.689 3.737-4.5 4.96v0c-3.664 2.474-7.782 3.665-12.355 3.573v0c-6.032-0.121-10.993-1.628-14.882-4.52v0c-1.958-1.466-3.486-3.394-4.585-5.783-1.092-2.396-1.623-5.167-1.593-8.314v0c-0.002-1.56 0.027-3.857 0.088-6.889 0.061-3.033 0.145-5.218 0.252-6.556 0.114-1.338 0.401-2.359 0.862-3.064 0.461-0.704 1.371-1.043 2.731-1.015v0l13.267 0.266c1.326 0.027 2.199 0.391 2.618 1.093v0c0.542 0.904 0.794 2.303 0.756 4.196zM232.424 2.768c-0.925-0.047-1.695-0.394-2.31-1.04-0.614-0.646-0.976-1.675-1.083-3.089-0.114-1.421 0.008-5.647 0.368-12.678 0.36-7.037 0.711-11.626 1.054-13.764v0c0.408-2.763 1.656-4.124 3.744-4.084v0c2.387 0.055 12.269 0.527 29.646 1.416v0c1.957 0.1 2.873 1.392 2.746 3.875v0c-0.1 1.951-1.012 2.882-2.737 2.794v0l-10.925-0.559c-0.692-0.035-1.257 0.169-1.694 0.615-0.436 0.438-0.673 1.024-0.71 1.756v0l-0.183 3.575c-0.051 0.992 0.37 1.511 1.262 1.557v0l9.038 0.462c0.526 0.027 0.93 0.098 1.211 0.212 0.275 0.114 0.516 0.417 0.724 0.908 0.202 0.491 0.275 1.282 0.219 2.374-0.056 1.092-0.283 1.811-0.681 2.158-0.398 0.34-1.026 0.488-1.885 0.445v0l-8.099-0.415c-0.826-0.042-1.405 0.135-1.74 0.532-0.334 0.403-0.524 1.035-0.567 1.894v0l-0.124 2.427c-0.073 1.425 0.566 2.172 1.918 2.241v0l12.363 0.632c0.599 0.031 1.123 0.231 1.572 0.601 0.441 0.376 0.632 1.15 0.572 2.322-0.06 1.178-0.394 2.216-1 3.113-0.613 0.897-1.299 1.325-2.059 1.287v0zM285.549 7.098c-2.844-0.232-5.47-0.761-7.877-1.586-2.414-0.826-4.097-1.595-5.049-2.308-0.959-0.707-1.594-1.207-1.904-1.5v0c-0.8-0.768-1.15-1.763-1.051-2.985v0c0.078-0.957 0.268-1.854 0.571-2.693v0c0.558-1.587 1.398-2.334 2.521-2.242v0c0.363 0.063 1.498 0.54 3.405 1.432 1.908 0.885 3.423 1.373 4.546 1.464v0c1.681 0.137 2.576-0.455 2.683-1.777v0c0.065-0.791-0.288-1.559-1.056-2.304-0.769-0.745-1.715-1.478-2.84-2.198-1.118-0.727-2.239-1.544-3.362-2.452-1.124-0.901-2.042-2.106-2.755-3.616-0.707-1.502-0.982-3.211-0.826-5.124v0c0.259-3.176 2.017-5.538 5.274-7.085 3.25-1.547 7.337-2.12 12.26-1.718 4.917 0.401 8.779 1.225 11.588 2.471 2.808 1.246 4.139 2.759 3.994 4.54v0c-0.105 1.289-0.493 2.398-1.165 3.326-0.677 0.921-1.345 1.355-2.002 1.301v0c-0.233-0.019-0.979-0.337-2.24-0.955-1.267-0.618-2.429-0.971-3.486-1.057v0c-2.08-0.17-3.186 0.556-3.318 2.177v0c-0.065 0.791 0.371 1.559 1.307 2.304 0.936 0.739 2.084 1.471 3.443 2.198 1.352 0.726 2.708 1.525 4.068 2.399 1.36 0.88 2.48 2.022 3.363 3.424 0.882 1.403 1.246 3.045 1.093 4.926-0.153 1.88-0.898 3.549-2.235 5.004-1.33 1.457-3.019 2.533-5.069 3.229v0c-4.071 1.36-8.698 1.829-13.881 1.405zM338.411 8.358v0c-0.114 0.718-0.499 1.35-1.157 1.893-0.664 0.543-1.494 0.792-2.488 0.749v0c-1.89-0.077-4.153-0.262-6.79-0.557-2.637-0.294-5.051-0.631-7.243-1.01v0c-0.98-0.176-1.734-0.603-2.262-1.279-0.522-0.675-0.759-1.376-0.711-2.102v0c0.46-5.02 0.887-9.299 1.282-12.837 0.396-3.545 0.702-6.137 0.918-7.776v0c0.14-1.252-0.35-1.941-1.469-2.066v0l-4.443-0.496c-0.696-0.078-1.237-0.306-1.624-0.684-0.394-0.379-0.571-0.983-0.532-1.81 0.045-0.827 0.118-1.687 0.218-2.582 0.099-0.888 0.208-1.65 0.325-2.288 0.125-0.637 0.445-1.101 0.961-1.392 0.515-0.291 1.055-0.405 1.618-0.343v0c4.287 0.412 10.088 1.026 17.403 1.843 7.308 0.816 12.542 1.434 15.701 1.853v0c0.553 0.095 1.049 0.335 1.489 0.72 0.441 0.378 0.652 0.891 0.634 1.54-0.025 0.648-0.086 1.399-0.182 2.254-0.096 0.861-0.205 1.684-0.326 2.469v0c-0.265 1.473-1.153 2.125-2.663 1.956v0l-4.453-0.497c-1.12-0.125-1.744 0.389-1.872 1.542v0c-0.364 4.159-0.733 7.918-1.108 11.277-0.375 3.359-0.784 6.567-1.226 9.623z" opacity="1" transform="matrix(1,0,0,1,0,0)" fill="#000000" class="wordmark-text-0" data-fill-palette-color="primary" id="text-0"></path></svg></g></svg></g></svg></g></svg></g><g transform="matrix(1,0,0,1,125.66366838817893,0)"><svg viewBox="0 0 144.1926632236421 125.02785669814831" height="125.02785669814831" width="144.1926632236421"><g><svg xmlns="http://www.w3.org/2000/svg" xmlns:xlink="http://www.w3.org/1999/xlink" version="1.0" x="0" y="0" viewBox="9.35999870300293 14.761998176574707 81.28001403808594 70.47699737548828" enable-background="new 0 0 100 100" xml:space="preserve" height="125.02785669814831" width="144.1926632236421" class="icon-icon-0" data-fill-palette-color="accent" id="icon-0"><g fill="#99592a" data-fill-palette-color="accent"><path fill="#000000" d="M86.083 70.502c0 3.732-4.159 6.881-12.026 9.109-7.026 1.99-16.334 3.086-26.208 3.086s-19.182-1.096-26.208-3.086c-7.631-2.162-11.773-5.189-12.015-8.773-0.173 0.494-0.266 0.998-0.266 1.508 0 7.119 17.403 12.893 38.87 12.893 21.468 0 38.87-5.773 38.87-12.893 0-1.105-0.42-2.178-1.207-3.201C86.019 69.588 86.083 70.041 86.083 70.502z" data-fill-palette-color="accent"></path><path fill="#000000" d="M47.848 80.791c20.064 0 36.33-4.605 36.33-10.289 0-3.166-5.057-6-13.007-7.887-1.27 2.311-2.669 4.531-4.196 6.617-0.779 1.57-3.035 2.752-6.879 3.605-3.443 0.766-7.889 1.188-12.52 1.188-7.034 0-15.701-1.012-18.635-3.791h-0.078l-0.333-0.449c-0.036-0.045-0.07-0.092-0.103-0.139l-0.072-0.096c-1.621-2.186-3.082-4.457-4.383-6.803-7.63 1.887-12.452 4.662-12.452 7.754C11.519 76.186 27.784 80.791 47.848 80.791z" data-fill-palette-color="accent"></path><path fill="#000000" d="M76.648 26.47c-0.191-1.724-0.445-3.43-0.781-5.106h-0.044c-0.585-3.67-13.005-6.602-28.247-6.602-15.243 0-27.663 2.932-28.247 6.602h-0.097c-0.764 3.811-1.167 7.756-1.167 11.794 0 11.934 3.504 23.036 9.524 32.317 0.012 0.018 0.023 0.037 0.036 0.055 0.309 0.475 0.625 0.945 0.946 1.41 0.056 0.08 0.112 0.16 0.168 0.242 0.32 0.457 0.644 0.91 0.976 1.357h0.014c1.181 2.141 8.718 3.791 17.846 3.791 9.367 0 17.062-1.738 17.928-3.959 0.326-0.441 0.643-0.889 0.955-1.34 0.072-0.105 0.144-0.209 0.215-0.314 0.298-0.434 0.59-0.873 0.877-1.316 0.008-0.014 0.018-0.027 0.027-0.043 0.32-0.498 0.634-1.004 0.939-1.514 0.017-0.025 0.032-0.053 0.049-0.08 0.301-0.502 0.596-1.01 0.883-1.523 0.002-0.002 0.004-0.006 0.006-0.01h-0.001c0.474-0.844 0.929-1.701 1.361-2.57 8.308-0.582 19.519-10.208 19.811-25.474l0.015-0.703C90.641 27.041 83.54 26.521 76.648 26.47zM47.576 26.008c-13.414 0-24.288-1.958-24.288-4.375 0-2.416 10.874-4.375 24.288-4.375 13.413 0 24.287 1.959 24.287 4.375C71.863 24.05 60.989 26.008 47.576 26.008zM84.787 34.069c-0.172 8.976-5.028 15.451-10.021 18.283 2.068-6.172 3.116-12.618 3.116-19.194 0-0.271-0.006-0.542-0.015-0.812 6.731 0.186 6.934 0.989 6.934 1.068L84.787 34.069z" data-fill-palette-color="accent"></path></g></svg></g></svg></g><g></g></svg></g></svg></g><defs></defs></svg><rect width="395.52" height="191.78745593976163" fill="none" stroke="none" visibility="hidden"></rect></g></svg></g></svg>